<svg width="24" height="24" viewBox="0 0 24 24" fill="none" xmlns="http://www.w3.org/2000/svg">
<path d="M21.2895 5.8902L11.2895 15.8902C11.197 15.9829 11.0871 16.0565 10.9661 16.1066C10.8452 16.1568 10.7155 16.1826 10.5845 16.1826C10.4535 16.1826 10.3239 16.1568 10.2029 16.1066C10.0819 16.0565 9.97203 15.9829 9.87951 15.8902L7.04951 13.0602C6.95693 12.9676 6.88349 12.8577 6.83339 12.7367C6.78328 12.6158 6.75749 12.4861 6.75749 12.3552C6.75749 12.2243 6.78328 12.0946 6.83339 11.9737C6.88349 11.8527 6.95693 11.7428 7.04951 11.6502C7.1421 11.5576 7.25201 11.4842 7.37297 11.4341C7.49394 11.384 7.62358 11.3582 7.75451 11.3582C7.88544 11.3582 8.01509 11.384 8.13606 11.4341C8.25702 11.4842 8.36693 11.5576 8.45951 11.6502L10.5795 13.7702L19.8695 4.4802C19.962 4.3875 20.0719 4.31395 20.1929 4.26377C20.3139 4.21359 20.4435 4.18776 20.5745 4.18776C20.7055 4.18776 20.8352 4.21359 20.9561 4.26377C21.0771 4.31395 21.187 4.3875 21.2795 4.4802C21.6795 4.8702 21.6795 5.5002 21.2895 5.8902ZM15.7695 2.7402C14.0795 2.0502 12.1595 1.8102 10.1595 2.1702C6.08951 2.9002 2.83951 6.1802 2.14951 10.2502C1.87574 11.8009 1.97168 13.3942 2.42955 14.9008C2.88742 16.4074 3.69429 17.7847 4.78459 18.9208C5.87489 20.0569 7.21786 20.9197 8.70435 21.4392C10.1908 21.9586 11.7789 22.12 13.3395 21.9102C17.2995 21.4002 20.6195 18.4502 21.6595 14.6002C22.0595 13.1302 22.0995 11.7102 21.8695 10.3802C21.7395 9.5802 20.7495 9.2702 20.1695 9.8402C19.9395 10.0702 19.8395 10.4102 19.8995 10.7302C20.1195 12.0602 20.0195 13.4802 19.3795 14.9902C18.2195 17.7002 15.6995 19.6902 12.7695 19.9602C7.66952 20.4302 3.43951 16.1102 4.06951 10.9802C4.49951 7.4402 7.34951 4.5602 10.8795 4.0702C12.6095 3.8302 14.2495 4.1602 15.6495 4.8802C15.8856 5.00353 16.1609 5.02804 16.415 4.94833C16.6691 4.86863 16.8812 4.69125 17.0045 4.4552C17.1278 4.21916 17.1523 3.94379 17.0726 3.68968C16.9929 3.43557 16.8156 3.22353 16.5795 3.1002C16.3095 2.9802 16.0395 2.8502 15.7695 2.7402Z" fill="black"/>
</svg>
