<svg width="32" height="32" viewBox="0 0 32 32" fill="none" xmlns="http://www.w3.org/2000/svg">
<path d="M21.5002 2.5V3.906C20.6804 4.04679 19.9018 4.3671 19.2202 4.844L18.1882 3.874L16.8132 5.344L17.8132 6.281C17.3557 6.94769 17.0465 7.70469 16.9062 8.501H15.5002V10.501H16.9062C17.0522 11.331 17.3802 12.087 17.8442 12.751L16.7812 13.781L18.2212 15.221L19.2512 14.157C19.9152 14.621 20.6712 14.949 21.5012 15.095V16.5H23.5012V15.094C24.2975 14.9541 25.0545 14.6452 25.7212 14.188L26.6572 15.188L28.1272 13.812L27.1572 12.782C27.6272 12.112 27.9472 11.337 28.0952 10.5H29.5002V8.5H28.0942C27.9503 7.6903 27.6301 6.92217 27.1562 6.25L28.0942 5.312L26.6872 3.906L25.7502 4.844C25.0781 4.37017 24.3099 4.04994 23.5002 3.906V2.5H21.5002ZM22.5002 5.813C22.9853 5.80981 23.4663 5.903 23.9151 6.08714C24.3639 6.27129 24.7717 6.54274 25.1148 6.88573C25.4579 7.22872 25.7294 7.63643 25.9137 8.08521C26.098 8.53398 26.1913 9.01488 26.1882 9.5C26.1882 11.555 24.5552 13.188 22.5002 13.188C20.4452 13.188 18.8122 11.555 18.8122 9.5C18.8122 7.445 20.4452 5.812 22.5002 5.812V5.813ZM9.53023 11.718L7.68823 12.468L8.40623 14.278C7.45045 14.85 6.64645 15.6437 6.06223 16.592L4.28223 15.872L3.53223 17.717L5.31223 18.435C5.17174 18.9759 5.09852 19.5321 5.09423 20.091C5.09423 20.661 5.17923 21.217 5.31223 21.747L3.53223 22.467L4.28223 24.31L6.06223 23.59C6.64113 24.5507 7.44573 25.3557 8.40623 25.935L7.68623 27.715L9.53123 28.465L10.2512 26.685C10.7921 26.8258 11.3483 26.8991 11.9072 26.903C12.4772 26.903 13.0352 26.818 13.5632 26.685L14.2832 28.465L16.1262 27.715L15.4062 25.935C16.3552 25.3516 17.1491 24.5474 17.7202 23.591L19.5302 24.309L20.2802 22.466L18.4702 21.746C18.6002 21.216 18.6882 20.659 18.6882 20.09C18.6882 19.52 18.6012 18.962 18.4682 18.433L20.2812 17.715L19.5312 15.87L17.7212 16.59C17.1468 15.6441 16.3531 14.8504 15.4072 14.276L16.1272 12.466L14.2822 11.716L13.5652 13.526C13.0238 13.3864 12.4673 13.3135 11.9082 13.309C11.3382 13.309 10.7822 13.395 10.2522 13.527L9.53223 11.717L9.53023 11.718ZM11.9062 15.31C14.5692 15.31 16.6862 17.43 16.6862 20.092C16.6882 22.755 14.5692 24.904 11.9062 24.904C11.2741 24.9048 10.648 24.7809 10.0638 24.5393C9.47965 24.2978 8.94886 23.9434 8.50187 23.4964C8.05487 23.0494 7.70046 22.5186 7.45891 21.9344C7.21736 21.3502 7.09344 20.7241 7.09423 20.092C7.09423 17.429 9.24423 15.31 11.9062 15.31Z" fill="black"/>
</svg>
